/* XPM */
static char *result[] = {
/* columns rows colors chars-per-pixel */
"32 32 5 1 ",
"  c black",
". c #3A0911",
"X c #811426",
"o c #A11B31",
"O c None",
/* pixels */
"OOOOOOOOOOOOOOOOOOOOOOOOOOOOOOOO",
"OOOOOOOOOOOOOOOOOOOOOOOOOOOOOOOO",
"OOOOOOOOOOOOOOOOOOOOOOOOOOOOOOOO",
"OOOOOOOOOOOOOOOOOOOOOOOOOOOOOOOO",
"OOOOOOOOOOOOOOOOOOOOOOOOOOOOOOOO",
"OOOOOOOOOOOOOOOOOOOOOOOOOOOOOOOO",
"OOOOOOOOOOOOOOOOOOOOOOOOOOOOOOOO",
"OOOOOOOOOOOOOOOOOOOOOOOOOOOOOOOO",
"OOOOOOOOOOOOOOOOOOOOOOOOOOOOOOOO",
"OOOOOOOOOOOOOOOOOOOOOOOOOOOOOOOO",
"OOOOOOOOOOOOOOOOOOOOOOOOOOOOOOOO",
"OOOOOOOOOOOOOOOOOOOOOOOOOOOOOOOO",
"OOOOOOOOOOOOOOOOOOOOOOOOOOOOOOOO",
"OOOOOOOOOOOOOOOOOOOOOOOOOOOOOOOO",
"OOOOOOOOOOOOOOOOOOOOOOOOOOOOOOOO",
"OOOOOOOO.......OOOOOOOOOOOOOOOOO",
"OOOOOOO.ooooooX...OOOOOOOOOOOOOO",
"OOOOOO.ooooooooX.o.OOOOOOOOOOOOO",
"OOOOO.ooooooooooXo.OOOOOOOOOOOOO",
"OOOO.oo.....ooooXX.OOOOOOOOOOOOO",
"OOOO.o.     .oooXX..OOOOOOOOOOOO",
"OOOO.o.      .oXX.oo..OOOOOOOOOO",
"OOOO.o.      .oX.ooooo.OOOOOOOOO",
"OOOO.X.      .oX.ooooo.OOOOOOOOO",
"OOOO.X.     .oXX.oooooX.OOOOOOOO",
"OOOOO.X.   .XXX.XoooooX.OOOOOOOO",
"OOOOOO.X...XX..XooooooX.OOOOOOOO",
"OOOOOOO.XXooooooooooooXX.OOOOOOO",
"OOOOOOOO.XooooooooooooXX.OOOOOOO",
"OOOOOOOOO.ooooooXoXooXXX.OOOOOOO",
"OOOOOOOOO.XXoXXXXXoXXXX.OOOOOOOO",
"OOOOOOOOOO.............  OOOOOOO"
};
