/* XPM */
static char *player411670542465[] = {
/* columns rows colors chars-per-pixel */
"32 32 5 1 ",
"  c None",
". c black",
"X c #3A0911",
"o c #811426",
"O c #A11B31",
/* pixels */
"                                ",
"                                ",
"                                ",
"                                ",
"                                ",
"                                ",
"                                ",
"                                ",
"                                ",
"                                ",
"                                ",
"                                ",
"                                ",
"                                ",
"                                ",
"                 XXXXXXX        ",
"              XXXoOOOOOOX       ",
"             XOXoOOOOOOOOX      ",
"             XOoOOOOOOOOOOX     ",
"             XooOOOOXXXXXOOX    ",
"            XXooOOOX.....XOX    ",
"          XXOOXooOX......XOX    ",
"         XOOOOOXoOX......XOX    ",
"         XOOOOOXoOX......XoX    ",
"        XoOOOOOXooOX.....XoX    ",
"        XoOOOOOoXoooX...XoX     ",
"        XoOOOOOOoXXooXXXoX      ",
"       XooOOOOOOOOOOOOooX       ",
"       XooOOOOOOOOOOOOoX        ",
"       XoooOOoOoOOOOOOX         ",
"        XooooOoooooOooX         ",
"       ..XXXXXXXXXXXXX          "
};
