/* XPM */
static char *player331670542469[] = {
/* columns rows colors chars-per-pixel */
"32 32 6 1 ",
"  c None",
". c black",
"X c #3A0911",
"o c #811426",
"O c #A11B31",
"+ c white",
/* pixels */
"                                ",
"                                ",
"              XXXXXXX           ",
"             XOOOOOOoX          ",
"            XOXXXXOOOoXXX       ",
"           XOX....XOOOoooX      ",
"          XOX......XOOoooX      ",
"          XOX......XOOooX       ",
"          XOX......XOooX        ",
"          XOX+...+.XOoX         ",
"          XoX+...+.XOoX         ",
"          XoX.....XOooX         ",
"           XoX...XoooX          ",
"            XoXXXooXX           ",
"           XoOOOOOoooX          ",
"         XXoOOOOOOOOOoX         ",
"        XoooOOOOOOOOOoXX        ",
"        XooOOOOOOOOOOOooX       ",
"       XooOOOOOOOOOOOooooX      ",
"       XooOOOOOoOOOOOOoooX      ",
"       XoXOOOOOoOOOOOOoooX      ",
"        XooOOOoXoOoOXoooX       ",
"         XXoOooXoooXooXX        ",
"           XXXX.XXXXXX          ",
"             .......            ",
"             ..   ..            ",
"             .    .             ",
"             .    .             ",
"              .    .            ",
"                                ",
"                                ",
"                                "
};
