/* XPM */
static char *player261670542468[] = {
/* columns rows colors chars-per-pixel */
"32 32 6 1 ",
"  c None",
". c black",
"X c #3A0911",
"o c #811426",
"O c #A11B31",
"+ c white",
/* pixels */
"                                ",
"                                ",
"                                ",
"                                ",
"                                ",
"                                ",
"                                ",
"           XXXXXXX              ",
"       XXXXoOOOOOOX             ",
"      XooooOOOXXXXOX            ",
"      XoooOOOX....XOX           ",
"       XooOOX......XOX          ",
"        XoOOX......XOX          ",
"         XoOX......XOX          ",
"         XoOX.+...+XOX          ",
"         XoOX.+...+XoX          ",
"         XooOX.....XoX          ",
"          XoooX...XoX           ",
"           XXooXXXoX            ",
"         XXoooOOOOOoXX          ",
"       XXooOOOOOOOOOooXX        ",
"      XooooOOOOOOOOOooooX       ",
"      XooooOOOOOOOOOOOooX       ",
"      XoooOOOOOOoOOOOOXoX       ",
"       XoooXOoOoXoOOOooX        ",
"        XXooXoooXooOoXX         ",
"          XXXXXX.XXXX           ",
"            .......             ",
"            ..   ..             ",
"            ..    .             ",
"             .    .             ",
"            .    .              "
};
