/* XPM */
static char *player431670542465[] = {
/* columns rows colors chars-per-pixel */
"32 32 5 1 ",
"  c None",
". c black",
"X c #3A0911",
"o c #811426",
"O c #A11B31",
/* pixels */
"                                ",
"                                ",
"                                ",
"                                ",
"                                ",
"                                ",
"                                ",
"                                ",
"                                ",
"                                ",
"                                ",
"                                ",
"                                ",
"                                ",
"                                ",
"                                ",
"                                ",
"                                ",
"                                ",
"                                ",
"                                ",
"                    XXXXXXXX    ",
"                  XXOOOOOOOOX   ",
"                 XOOOOOOOOOOOX  ",
"                XOOOOOOOOOOOOX  ",
"           XXXXXXOOOOXoOOOOOOOX ",
"        XXXOOOOOoXOOXoOOOOOOOoX ",
"       XOOOOOOOOOOXXoOOOOOOOOOX ",
"      XoOOOOOOOOOOooOOOOOOOOOoX ",
"     XoOOOOOOOOOOOOOOOOOOOOOooX ",
"    XoooooooooooooooooooooooooX ",
"  ...XXXXXXXXXXXXXXXXXXXXXXXXX  "
};
