/* XPM */
static char *player271670542468[] = {
/* columns rows colors chars-per-pixel */
"32 32 6 1 ",
"  c None",
". c black",
"X c #3A0911",
"o c #811426",
"O c #A11B31",
"+ c white",
/* pixels */
"                                ",
"                                ",
"                                ",
"                                ",
"                                ",
"                                ",
"           XXXXXXX              ",
"          XoOOOOOOX             ",
"         XoOOOXXXXOX            ",
"       XXoOOOX....XOX           ",
"      XoooOOX......XOX          ",
"      XoooOOX......XOX          ",
"       XoXoOX.+...+XOX          ",
"        XXoOX.+...+XOX          ",
"         XoOX......XoX          ",
"         XooOX.....XoX          ",
"          XoooX...XoX           ",
"           XXooXXXoX            ",
"          XoooOOOOOoX           ",
"         XoOOOOOOOOOX           ",
"         XoOOOOOOOOOoX          ",
"        XooOOOOOOOOOOX          ",
"        XoOOOOOOoOOOOoX         ",
"       XooOOOOOOoOOOOOX         ",
"       XooooOoOoXoOOOoX         ",
"       XXoooooooXooOoXX         ",
"         XXooooX.XooooX         ",
"           XXXX...XXXX          ",
"            ..   ..             ",
"            ..    .             ",
"             .    .             ",
"            .    .              "
};
