/* XPM */
static char *player301670542469[] = {
/* columns rows colors chars-per-pixel */
"32 32 6 1 ",
"  c None",
". c black",
"X c #3A0911",
"o c #811426",
"O c #A11B31",
"+ c white",
/* pixels */
"                                ",
"                                ",
"                                ",
"                                ",
"                                ",
"                                ",
"                                ",
"              XXXXXXX           ",
"             XOOOOOOoX          ",
"            XOXXXXOOOoX         ",
"           XOX....XOOOoX        ",
"          XOX......XOOoX        ",
"          XOX......XOOooX       ",
"          XOX+...+.XOooooX      ",
"          XOX......XOoXooX      ",
"          XoX......XOoXXX       ",
"          XoX.....XOooX         ",
"           XoX...XoooX          ",
"           XXoXXXooXXX          ",
"          XoOOOOOOOOOoX         ",
"          XoOOOOOOOOOoX         ",
"          XOOOOOOOOOOOoX        ",
"          XOOOOOOOOOOOoX        ",
"         XoOOOOoOOOOOOooX       ",
"         XoOOOOoOOOOOOoooX      ",
"        XoooOOoXoOOOOOoooX      ",
"        XoooOooXooOoOooooX      ",
"        XoooooX.XooOoooooX      ",
"         XXoooX..XooooXoX       ",
"         X XXX...XXXXX X        ",
"            .    .              ",
"             .    .             "
};
