/* XPM */
static char *player361670542469[] = {
/* columns rows colors chars-per-pixel */
"32 32 6 1 ",
"  c None",
". c black",
"X c #3A0911",
"o c #811426",
"O c #A11B31",
"+ c white",
/* pixels */
"                                ",
"                                ",
"                                ",
"                                ",
"                                ",
"              XXXXXXX           ",
"             XOOOOOOoX          ",
"            XOXXXXOOOoX         ",
"           XOX....XOOOoX        ",
"          XOX......XOOoXX       ",
"          XOX......XOOoooX      ",
"          XOX+...+.XOooooX      ",
"          XOX+...+.XOoXXX       ",
"          XoX......XOoX         ",
"          XoX.....XOooX         ",
"           XoX...XoooX          ",
"            XoXXXooXX           ",
"           XoOOOOOoooX          ",
"          XoOOOOOOOOOoX         ",
"          XoOOOOOOOOOoX         ",
"         XoOOOOOOOOOOOoX        ",
"         XoOOOOOOOOOOOoX        ",
"         XoOOOOoOOOOOOoX        ",
"         XoOOOOoOOOOOOooX       ",
"         XooOOoXoOOOOOooX       ",
"         XooooX.XooOooooX       ",
"         XoXooX..XooooXoX       ",
"          XXXX...XXXXX X        ",
"             ..   ..            ",
"             .    ..            ",
"             .    .             ",
"             .    .             "
};
