/* XPM */
static char *player311670542469[] = {
/* columns rows colors chars-per-pixel */
"32 32 6 1 ",
"  c None",
". c black",
"X c #3A0911",
"o c #811426",
"O c #A11B31",
"+ c white",
/* pixels */
"                                ",
"                                ",
"              XXXXXXX           ",
"             XOOOOOOoX          ",
"            XOXXXXOOOoX         ",
"           XOX....XOOOoX        ",
"          XOX......XOOoX        ",
"          XOX+...+.XOOooX       ",
"          XOX+...+.XOoooX       ",
"          XOX......XOoXoX       ",
"          XoX......XOoXoX       ",
"          XoX.....XOooXX        ",
"           XoX...XoooX          ",
"            XoXXXooXX           ",
"           XoOOOOOoooX          ",
"          XoOOOOOOOOOoX         ",
"          XoOOOOOOOOOoX         ",
"          XOOOOOOOOOOOX         ",
"          XOOOOOOOOOOOX         ",
"          XOOOOoOOOOOOX         ",
"          XOOOOoOOOOOOX         ",
"          XoOOoXoOOOOOX         ",
"          XoOooXooOoOooX        ",
"         XooooX.XooOoooX        ",
"         XoXooX..XoooooX        ",
"          XooX...XooXooX        ",
"           XXX.  XXX XX         ",
"             .    ..            ",
"             .    .             ",
"             .    .             ",
"                                ",
"                                "
};
