/* XPM */
static char *player341670542469[] = {
/* columns rows colors chars-per-pixel */
"32 32 6 1 ",
"  c None",
". c black",
"X c #3A0911",
"o c #811426",
"O c #A11B31",
"+ c white",
/* pixels */
"                                ",
"                                ",
"                                ",
"                                ",
"                                ",
"                                ",
"                                ",
"              XXXXXXX           ",
"             XOOOOOOoXXXX       ",
"            XOXXXXOOOooooX      ",
"           XOX....XOOOoooX      ",
"          XOX......XOOooX       ",
"          XOX......XOOoX        ",
"          XOX......XOoX         ",
"          XOX+...+.XOoX         ",
"          XoX+...+.XOoX         ",
"          XoX.....XOooX         ",
"           XoX...XoooX          ",
"            XoXXXooXX           ",
"          XXoOOOOOoooXX         ",
"        XXooOOOOOOOOOooXX       ",
"       XooooOOOOOOOOOooooX      ",
"       XooOOOOOOOOOOOooooX      ",
"       XoXOOOOOoOOOOOOoooX      ",
"        XooOOOoXoOoOXoooX       ",
"         XXoOooXoooXooXX        ",
"           XXXX.XXXXXX          ",
"             .......            ",
"             ..   ..            ",
"             .    ..            ",
"             .    .             ",
"              .    .            "
};
