/* XPM */
static char *player391670542465[] = {
/* columns rows colors chars-per-pixel */
"32 32 6 1 ",
"  c None",
". c black",
"X c #3A0911",
"o c #811426",
"O c #A11B31",
"+ c white",
/* pixels */
"                                ",
"                                ",
"                                ",
"                                ",
"                                ",
"                                ",
"                                ",
"           XXXXXXX              ",
"          XoOOOOOOX             ",
"         XoOOOXXXXOX            ",
"        XoOOOX....XOX           ",
"       XooOOX......XOX          ",
"      XoooOOX......XOX          ",
"      XooooOX.+...+XOX          ",
"       XXXoOX.+...+XOX          ",
"         XoOX......XoX          ",
"         XooOX.....XoX          ",
"         XXoooX...XoX           ",
"        XooXXooXXXoXX           ",
"        XoOOOOOOOOOoX           ",
"        XOOOOOOOOOOOX           ",
"       XOOOOOOOOOOOoX           ",
"       XoOOOOOoOOOOoX           ",
"       XoOOOOOOoOOOOoX          ",
"       XoOOOOOoXoOOoooX         ",
"       XooOoOooXooOoooX         ",
"       XoooOooX.XoooooX         ",
"       XoooooX..XooXoX          ",
"        XXXooX...XXoX           ",
"           XX.   ..X            ",
"            .    ..             ",
"           .    .               "
};
