/* XPM */
static char *player231670542468[] = {
/* columns rows colors chars-per-pixel */
"32 32 6 1 ",
"  c None",
". c black",
"X c #3A0911",
"o c #811426",
"O c #A11B31",
"+ c white",
/* pixels */
"                                ",
"                                ",
"           XXXXXXX              ",
"          XoOOOOOOX             ",
"         XoOOOXXXXOX            ",
"        XoOOOX....XOX           ",
"        XoOOX......XOX          ",
"       XooOOX.+...+XOX          ",
"       XoooOX.+...+XOX          ",
"       XoXoOX......XOX          ",
"       XoXoOX......XoX          ",
"        XXooOX.....XoX          ",
"          XoooX...XoX           ",
"           XXooXXXoX            ",
"          XoooOOOOOoX           ",
"         XoOOOOOOOOOoX          ",
"         XoOOOOOOOOOoX          ",
"         XOOOOOOOOOOOX          ",
"         XOOOOOOOOOOOX          ",
"         XOOOOOOoOOOOX          ",
"         XOOOOOOoOOOOX          ",
"         XOOOOOoXoOOoX          ",
"        XooOoOooXooOoX          ",
"        XoooOooX.XooooX         ",
"        XoooooX..XooXoX         ",
"        XooXooX...XooX          ",
"         XX XXX  .XXX           ",
"            ..    .             ",
"             .    .             ",
"             .    .             ",
"                                ",
"                                "
};
