/* XPM */
static char *player351670542469[] = {
/* columns rows colors chars-per-pixel */
"32 32 6 1 ",
"  c None",
". c black",
"X c #3A0911",
"o c #811426",
"O c #A11B31",
"+ c white",
/* pixels */
"                                ",
"                                ",
"                                ",
"                                ",
"                                ",
"                                ",
"              XXXXXXX           ",
"             XOOOOOOoX          ",
"            XOXXXXOOOoX         ",
"           XOX....XOOOoXX       ",
"          XOX......XOOoooX      ",
"          XOX......XOOoooX      ",
"          XOX+...+.XOoXoX       ",
"          XOX+...+.XOoXX        ",
"          XoX......XOoX         ",
"          XoX.....XOooX         ",
"           XoX...XoooX          ",
"            XoXXXooXX           ",
"           XoOOOOOoooX          ",
"           XOOOOOOOOOoX         ",
"          XoOOOOOOOOOoX         ",
"          XOOOOOOOOOOooX        ",
"         XoOOOOoOOOOOOoX        ",
"         XOOOOOoOOOOOOooX       ",
"         XoOOOoXoOoOooooX       ",
"         XXoOooXoooooooXX       ",
"         XooooX.XooooXX         ",
"          XXXX...XXXX           ",
"             ..   ..            ",
"             .    ..            ",
"             .    .             ",
"              .    .            "
};
