/* XPM */
static char *_1b28898fc13486deeac1c68a3732874nXUd31GQUrvZW5a0[] = {
/* columns rows colors chars-per-pixel */
"33 32 12 1 ",
"  c #36160A",
". c #3D2C11",
"X c #4D381C",
"o c #5E4522",
"O c #635424",
"+ c #70592B",
"@ c #78652B",
"# c #825734",
"$ c #B88432",
"% c #BA9961",
"& c #E5BD77",
"* c #EBCB7A",
/* pixels */
"oooooooooooooooooooooooooooooooo$",
"                                @",
"%%%%%%%%%%%%%%%%%%%%%%%%%%%%%%%%@",
"&&&&&&&&&&&&&&&&&&&&&&&&&&&&&&&&@",
"&&&&&&&&&&&&&&&&&&&&&&&&&&&&&&&&@",
"o+o++++++++++++++++++++++++++o+o@",
"                                @",
"%%%%%%%%%%%%%%%%%%%%%%%%%%%%%%%%@",
"&&&&&&&&&&&&&&&&&&&&&&&&&&&&&&&&@",
"&*&*&*&*&*&*&*&*&*&*&*&*&*&*&*&*@",
"*&*&*&*&*&*&*&*&*&*&*&*&*&*&*&*&@",
"**&***&***&***&***&***&***&***&*+",
"&***&***&***&***&***&***&***&***@",
"********************************+",
"********************************+",
"********************************o",
"********************************o",
"&&&&&&&&&&&&&&&&&&&&&&&&&&&&&&&&o",
"%%%%%%%%%%%%%%%%%%%%%%%%%%%%%%%%o",
"################################o",
"ooooooooooooooooooooooooooooooooo",
"ooooooooooooooooooooooooooooooooo",
"                                o",
"..XX...XXXX...XXXX...XXXX...XXX.o",
".OooX.OXooXX.OXooXX.oXooXX.OXoXXo",
".@ooX.@ooooX.@ooooX.@ooooX.@oooXo",
"X@ooX.@ooooX.@ooooXX@ooooX.@oooXo",
"X@ooXX@ooooXX@ooooX.@ooooXX@oooXo",
".OooX.OooooX.OooooXXOooooX.OoooXo",
"################################o",
"ooooooooooooooooooooooooooooooooo",
"ooooooooooooooooooooooooooooooooo"
};
