/* XPM */
static char *f57bf43bc1614b5de98f8162e49cc651GcFvdrwyT8iVV4Rn[] = {
/* columns rows colors chars-per-pixel */
"32 32 20 1 ",
"  c #3B2717",
". c #3D2C11",
"X c #382F24",
"o c #433119",
"O c #4D381C",
"+ c #4D401F",
"@ c #5E4522",
"# c #70592B",
"$ c #664839",
"% c #736244",
"& c #916A3B",
"* c #85755C",
"= c #948465",
"- c #9A8B6E",
"; c #BA9961",
": c #A1957A",
"> c #ABA589",
", c #ADB591",
"< c #ECD093",
"1 c #C7C5A7",
/* pixels */
",,>>*$O=<1,,,,>:,,>>*$O=<1,,,,>:",
">>:::%+<1,,,,,,,>>:::%+<1,,,,,,,",
"**&&&%@1>*********&&&%+1>*******",
"****&%@>************&%@>********",
"****&%@:************&%@:********",
"****&%@:************&%@:********",
"@@@@+O O+@+O O+@@@@@+OOO+@+OOO+@",
",,,,>:,,>>*$O=<1,,,:>:,,>>*$O=<1",
",,,,,,>>:::%+<1,,>:*,,>>:::%+<1,",
"********&&&%@1>=*%OO=***&&&%+1>*",
"*%%%%*****&%@>**%O @=*****&%@>**",
"%@O +=****&%@:*%O @%-*****&%@:**",
"%O +@;=***&%@@%%O@%:******&%@:**",
"OO+@+O O+@@@@@+OOO+@+O O+@@@@@+O",
",,>>*$O=<1,,,,>:,,>>*$O=<1,,,,>:",
">>:::%+<1,,,,,,,>>:::%+<1,,,,,,,",
"**&&&%@1>*********&&&%+1>*******",
"****&%@>************&%@>********",
"****&%@:************&%@:**%%%%**",
"****&%@:************&%@:*%$@OO@=",
"@@@@+OOO+@+OOO+@@@@@+OOO+@+OOO+@",
",,,,>:,,>>*$O=<1,,,,>:,,>>*$O=1>",
",,,,,,>>:::%+<1,,,,,,,>>:::%+1;,",
"********&&&%@1>*********&&&%@;**",
"**********&%@>****$#******&%@>**",
"**********&%@:***$OO=*****&%@>**",
"****&*&***&%@:**$..@;*&***&%@>**",
"&**&&&*&*&&%@:*$.O@=&*&*&*&%@>&*",
"&&%&&&&&&&&@O@&&&&%&&&&&&&&@O@&&",
"@@@@+OOO+@+OOO+@@@@@+OOO+@+OOO+@",
"oooXXXXXoooXooXXoooooXooXXXXXXoX",
"                                "
};
