/* XPM */
static char *_1b071936fa54ca5c7d767e6b2f427924niFqNx9FA9qItsN[] = {
/* columns rows colors chars-per-pixel */
"32 32 103 2 ",
"   c None",
".  c black",
"X  c gray1",
"o  c #040404",
"O  c #0B0B0B",
"+  c #0C0C0C",
"@  c gray5",
"#  c gray8",
"$  c #151515",
"%  c #161616",
"&  c #191919",
"*  c gray10",
"=  c #1B1B1B",
"-  c gray11",
";  c #1E1E1E",
":  c gray12",
">  c #202020",
",  c #232323",
"<  c #222326",
"1  c #282828",
"2  c #2A2A2A",
"3  c gray18",
"4  c #2F2F2F",
"5  c #2E3031",
"6  c #323232",
"7  c gray20",
"8  c #343434",
"9  c #353535",
"0  c gray21",
"q  c #373737",
"w  c gray22",
"e  c #393939",
"r  c gray23",
"t  c #3C3C3C",
"y  c #3E3E3E",
"u  c #3F3F3F",
"i  c #5D4932",
"p  c #634B36",
"a  c #624C37",
"s  c #634C37",
"d  c gray25",
"f  c #414141",
"g  c #444444",
"h  c gray27",
"j  c #4E4943",
"k  c gray29",
"l  c #4B4B4B",
"z  c #494E4F",
"x  c gray30",
"c  c #4E4E4E",
"v  c #505050",
"b  c #515151",
"n  c gray32",
"m  c #535353",
"M  c #555555",
"N  c #565656",
"B  c #585858",
"V  c gray35",
"C  c gray36",
"Z  c #5D5D5D",
"A  c #5F5F5F",
"S  c #7B5F43",
"D  c #7F6346",
"F  c #7F654F",
"G  c #535960",
"H  c #585F67",
"J  c #555D6A",
"K  c #646464",
"L  c #656565",
"P  c #676767",
"I  c #646768",
"U  c #686868",
"Y  c #6A6A6A",
"T  c gray42",
"R  c #6C6C6C",
"E  c #6F6F6F",
"W  c #717171",
"Q  c #727272",
"!  c #767676",
"~  c gray47",
"^  c gray48",
"/  c #7C7C7C",
"(  c #856545",
")  c #856646",
"_  c #8A6540",
"`  c #8A6641",
"'  c #8A6643",
"]  c #896744",
"[  c #8A6846",
"{  c #876848",
"}  c #896949",
"|  c #896A4B",
" . c #8A6A4A",
".. c #8A6A4B",
"X. c #8A6B4C",
"o. c #856B50",
"O. c #818181",
"+. c #838383",
"@. c #848484",
"#. c #888888",
"$. c #959595",
"%. c gray59",
"&. c #9F9F9F",
/* pixels */
"                                                                ",
"                                                                ",
"                                                                ",
"                                                                ",
"            ^ ^ ^ W E b , 2     % X                             ",
"            ^ ! ! ^ ^ K b x x b k k 2                           ",
"            Y C Y ! ^ b d t w o k b A                           ",
"              O.Y x b b t w Y 2 O x Y 2                         ",
"                  W #.C d t d x w b L k                         ",
"                    E &.@.x d t t N ^ $.&.                      ",
"                      ^ 0 &.@.h d N ! N $.                      ",
"                      / 0 A N t b b ^ ! L                       ",
"                        O.C - , A 0 d W ^ Y                     ",
"                        X 7 - - 0 0 > - d b                     ",
"                          7 7 % 3 3 > 0                         ",
"                          % w w 0 0 0 0 o                       ",
"                          O 0 w 0 w w w o                       ",
"                          & & w w w w w =                       ",
"                          @ - 4 0 7 7 3 3                       ",
"                            - : 0 7 < z J j                     ",
"                            d - 5 H I F X.X.X.                  ",
"                              d G o.X.X.X.X.....                ",
"                                X.X.X.....) X.[ `               ",
"                                p ......{ ` ......X.            ",
"                                  { X.] X.X.{ ..{ ..D           ",
"                                    ] X.X.) X.X.X.X.X.D         ",
"                                    D X.X.X.X.X.X.X.X.) s       ",
"                                      ) { X.X.X.X.X.X.X.X.s     ",
"                                      X.{ X.X.) ..X...) X.) i   ",
"                                      i ..X.X...X.X.X.....X...  ",
"                                        S X.X.X.X.X.X.X.X.X.X.S ",
"                                                                "
};
