/* XPM */
static char *c34ba80809704242c0e046e044739aa4beIG8SAcp1KZQEva[] = {
/* columns rows colors chars-per-pixel */
"32 32 128 2 ",
"   c None",
".  c black",
"X  c gray1",
"o  c #060606",
"O  c #090909",
"+  c #131313",
"@  c gray8",
"#  c gray9",
"$  c #191919",
"%  c gray10",
"&  c gray11",
"*  c #1E1E1E",
"=  c gray12",
"-  c #232323",
";  c #272727",
":  c #282828",
">  c gray16",
",  c #2A2A2A",
"<  c gray17",
"1  c #2B2D2E",
"2  c #2C2C2C",
"3  c gray18",
"4  c #2F2F2F",
"5  c gray19",
"6  c #313131",
"7  c #323232",
"8  c gray20",
"9  c #343434",
"0  c gray21",
"q  c #373737",
"w  c #343839",
"e  c gray22",
"r  c #3A3A3A",
"t  c gray24",
"y  c #3E3E3E",
"u  c #3F3F3F",
"i  c #54280A",
"p  c #5E3618",
"a  c #692B04",
"s  c #6B2F09",
"d  c #433F3B",
"f  c #5D4932",
"g  c #5D4834",
"h  c #5E4A34",
"j  c #6A4626",
"k  c #634C36",
"l  c #7F5E3D",
"z  c gray25",
"x  c gray26",
"c  c #434343",
"v  c #444444",
"b  c #464646",
"n  c gray28",
"m  c #484848",
"M  c gray29",
"N  c #4C4C4C",
"B  c gray30",
"V  c #505050",
"C  c #515151",
"Z  c #535353",
"A  c gray33",
"S  c #555555",
"D  c #565656",
"F  c gray34",
"G  c #545B5F",
"H  c #5A5A5A",
"J  c #5F5F5F",
"K  c #7B5F43",
"L  c #7F6245",
"P  c #7F6246",
"I  c #7F6346",
"U  c #4C5569",
"Y  c #545866",
"T  c #505869",
"R  c #535B6A",
"E  c gray39",
"W  c #646464",
"Q  c #6B6762",
"!  c #6E6A63",
"~  c #6A6A6A",
"^  c gray42",
"/  c gray43",
"(  c #6F6F6F",
")  c gray45",
"_  c gray46",
"`  c #777777",
"'  c gray47",
"]  c #7B7B7B",
"[  c #894E27",
"{  c #B56229",
"}  c #BF7035",
"|  c #BB733F",
" . c #856545",
".. c #856546",
"X. c #856646",
"o. c #8A6641",
"O. c #8A6643",
"+. c #896744",
"@. c #8A6846",
"#. c #876848",
"$. c #876849",
"%. c #896949",
"&. c #896A4B",
"*. c #8A6A4A",
"=. c #8A6A4B",
"-. c #886B4D",
";. c #8A6B4C",
":. c #817971",
">. c #CC8145",
",. c #CC8E51",
"<. c #DA9751",
"1. c #E2A556",
"2. c #FCD777",
"3. c #FCDA7F",
"4. c #838383",
"5. c #878785",
"6. c #888888",
"7. c gray55",
"8. c #8D8D8D",
"9. c #959595",
"0. c gray60",
"q. c #9A9A9A",
"w. c gray61",
"e. c #9F9F9F",
"r. c #FDDE89",
"t. c #FDE192",
"y. c #F5F3DA",
"u. c #FAF9E3",
/* pixels */
"                                                                ",
"          p j i                                                 ",
"  s { >.<.r.t.2.}                                               ",
"      | <.3.u.5._ g                                             ",
"        [ 1.y.' ' ' ' ' S B B : : X .                           ",
"          a ,._ ' ' ' ' b b 8 B C C C c                         ",
"              H S V E ) c t : O o M S S                         ",
"                  8._ V B t 2 S : , C e.9.u                     ",
"                      e.6.b r t t c ~ e.:                       ",
"                      8.6.0.J c t t E 4.e                       ",
"                        c 8 0.~ n u W / u                       ",
"                        ' _ - - u S E ' '                       ",
"                          2 = = F e 9 : ' '                     ",
"                          : : = r 9 8 r   (                     ",
"                            2 : + = # 9 &                       ",
"                          % : r e e e r :                       ",
"                            # 9 e e e e 2                       ",
"                            & 8 e e r 9 8                       ",
"                            % % 4 e 8 8 8 -                     ",
"                            = # 9 2 w G U Y                     ",
"                            ' = 1 U R ! -.;.;.                  ",
"                              ' 1 ! -.;.;.;.=.L                 ",
"                                  ;.;.=.=. .;.@. .              ",
"                                L =.=.=.$.o.=.=.=.f             ",
"                                k $.;.o.;.;.$.;.$.=.f           ",
"                                  g @.;.;. .;.;.;.=.;.          ",
"                                    I ;.;.;.;.;.;.;.;.X.        ",
"                                      X.$.;.;.;.;.;.;.;.;.      ",
"                                      ;.$.=.;. .;.;.;. .;. .    ",
"                                      f =.;.;.=.;.;.;.;.=.;.L   ",
"                                        K ;.;.;.;.;.;.;.;.;.;.K ",
"                                                                "
};
