/* XPM */
static char *_1fca90c67994da180843c6456d1ec19dFZbZkQQJSgigTCP[] = {
/* columns rows colors chars-per-pixel */
"32 32 118 2 ",
"   c None",
".  c black",
"X  c #010101",
"o  c #040404",
"O  c gray2",
"+  c gray4",
"@  c #0E0E0E",
"#  c gray7",
"$  c #151515",
"%  c gray9",
"&  c #181818",
"*  c #191919",
"=  c gray10",
"-  c #1B1B1B",
";  c gray11",
":  c #1E1E1E",
">  c gray12",
",  c #232323",
"<  c gray14",
"1  c #272727",
"2  c #282828",
"3  c gray16",
"4  c gray17",
"5  c #2C2C2C",
"6  c #2F2F2F",
"7  c gray19",
"8  c #323232",
"9  c gray20",
"0  c #343331",
"q  c #343434",
"w  c #353535",
"e  c gray21",
"r  c #373737",
"t  c #33363A",
"y  c #343738",
"u  c gray22",
"i  c #393939",
"p  c gray23",
"a  c #3C3C3C",
"s  c #3E3E3E",
"d  c #3F3F3F",
"f  c #502206",
"g  c #4A3A27",
"h  c #4A3A29",
"j  c #643E20",
"k  c #5D4732",
"l  c #5D4932",
"z  c #624C37",
"x  c #634C37",
"c  c #414141",
"v  c gray26",
"b  c #434343",
"n  c gray27",
"m  c #464646",
"M  c gray28",
"N  c #4F4E45",
"B  c #484848",
"V  c gray29",
"C  c #4C4C4C",
"Z  c gray30",
"A  c #4E4E4E",
"S  c gray31",
"D  c #454C5D",
"F  c #505050",
"G  c #515151",
"H  c #535353",
"J  c gray33",
"K  c #565656",
"L  c #5B5B5B",
"P  c gray36",
"I  c #7B5E40",
"U  c #7A5F43",
"Y  c #7B5F43",
"T  c #7A5F44",
"R  c #7D6043",
"E  c #7B6855",
"W  c #454C66",
"Q  c #4B5162",
"!  c gray39",
"~  c #646464",
"^  c #696461",
"/  c #6B6A60",
"(  c gray42",
")  c #6C6C6C",
"_  c #75746B",
"`  c #727272",
"'  c #747373",
"]  c #747474",
"[  c gray46",
"{  c #777676",
"}  c gray47",
"|  c #7C7C7C",
" . c #B55B29",
".. c #C3713A",
"X. c #856545",
"o. c #856646",
"O. c #8A6641",
"+. c #8A6642",
"@. c #8A6846",
"#. c #876848",
"$. c #876849",
"%. c #8A6A49",
"&. c #89694A",
"*. c #896A4B",
"=. c #8A6A4A",
"-. c #8A6A4B",
";. c #886B4D",
":. c #8A6B4C",
">. c #C67840",
",. c #F9E304",
"<. c #84827E",
"1. c #D7964C",
"2. c #E6AD59",
"3. c #EDBA63",
"4. c gray52",
"5. c #8E8E8E",
"6. c gray59",
"7. c gray62",
/* pixels */
"                                                                ",
"              f j                                               ",
"             .1.2.<.`                                           ",
"              ..3.} } } } )                                     ",
"                >.] ] { } } / c                                 ",
"                    { K ] } ,._ C F C C c X X                   ",
"                      4.F F N C c s q 6 C F B                   ",
"                        ) K F F s u C X 1 C n B                 ",
"                          7.} F s s u # O F n B                 ",
"                          } 8 6.F c s s s C c n                 ",
"                          | 1 C ] B B s s B c c                 ",
"                            5.1 , c L F c ~ B c                 ",
"                            q , : B q q n ~ } B                 ",
"                            & 6 % 8 q 8 u   }                   ",
"                            & u u & @ 2 u O                     ",
"                            + q u u u u u &                     ",
"                            ; : u u u u e =                     ",
"                            = & 8 u u q e =                     ",
"                            % = u q 8 q 0 4                     ",
"                            P > 1 6 t D Q / *.                  ",
"                              c y W E :.:.:.:.x                 ",
"                                8 *.*.*.:.:.-.*.X.              ",
"                                Y *.*.*.*.X.*.O.O.g             ",
"                                l *.*.*.@.O.*.:.X.*.            ",
"                                  l :.O.*.*.*.$.*.$.*.          ",
"                                    *.*.:.$.*.:.*.*.*.*.        ",
"                                    h #.:.:.:.:.*.:.:.$.x       ",
"                                      *.X.:.*.*.*.:.:.:.:.x     ",
"                                      *.*.*.:.*.:.:.:.X.:.X.l   ",
"                                        *.:.:.:.:.:.:.*.*.:.*.  ",
"                                        l :.:.:.:.:.:.:.:.:.:.R ",
"                                                                "
};
