/* XPM */
static char *bbc48b59e11e4716ab46dc174ad770dbO3Yy32bmLAfn6JvH[] = {
/* columns rows colors chars-per-pixel */
"32 32 110 2 ",
"   c None",
".  c black",
"X  c #010101",
"o  c gray1",
"O  c #040404",
"+  c gray2",
"@  c #0C0C0C",
"#  c #0E0E0E",
"$  c gray6",
"%  c gray7",
"&  c #131313",
"*  c #151515",
"=  c #191919",
"-  c #1B1B1B",
";  c gray11",
":  c #1D1D1D",
">  c #1C1D1F",
",  c #1E1E1E",
"<  c gray13",
"1  c #212124",
"2  c gray14",
"3  c #282828",
"4  c #282929",
"5  c gray16",
"6  c gray17",
"7  c #2D2D2D",
"8  c gray18",
"9  c #323232",
"0  c gray20",
"q  c #343432",
"w  c #343434",
"e  c #353535",
"r  c gray21",
"t  c #373737",
"y  c #363A3E",
"u  c gray22",
"i  c #393939",
"p  c gray24",
"a  c #3E3E3E",
"s  c #58442F",
"d  c #5A462F",
"f  c #5D4932",
"g  c #5E4A34",
"h  c #614932",
"j  c #72673B",
"k  c gray25",
"l  c #414141",
"z  c gray26",
"x  c #434343",
"c  c #464646",
"v  c gray28",
"b  c #484848",
"n  c #494949",
"m  c gray29",
"M  c #4C4C4C",
"N  c gray30",
"B  c #4E4E4E",
"V  c gray31",
"C  c #505050",
"Z  c gray32",
"A  c #555555",
"S  c gray34",
"D  c #5F565A",
"F  c #585858",
"G  c gray35",
"H  c #5A5A5A",
"J  c #5D5D5D",
"K  c #5F5F5F",
"L  c #7B5F43",
"P  c #7F6346",
"I  c #7F6347",
"U  c #7D6854",
"Y  c #565C61",
"T  c #585F63",
"R  c #515868",
"E  c #605E61",
"W  c gray39",
"Q  c gray40",
"!  c #6A6A6A",
"~  c #747474",
"^  c gray46",
"/  c #777676",
"(  c gray47",
")  c #797878",
"_  c #797979",
"`  c #7C7C7C",
"'  c #856545",
"]  c #856546",
"[  c #856646",
"{  c #8A6641",
"}  c #8A6642",
"|  c #8A6846",
" . c #856749",
".. c #82674C",
"X. c #876848",
"o. c #876849",
"O. c #886949",
"+. c #89694A",
"@. c #896A4B",
"#. c #8A6A4A",
"$. c #8A6A4B",
"%. c #8A6B4C",
"&. c #866B50",
"*. c #E0CB0B",
"=. c gray51",
"-. c #959595",
";. c gray59",
":. c gray60",
">. c gray61",
",. c #9D9D9D",
/* pixels */
"                                                                ",
"                  K                                             ",
"                  ( ( !                                         ",
"                  ( ( ( ( ( V                                   ",
"                  ( ^ ( ( W l                                   ",
"                  W ( / ^ A l 9   r 3                           ",
"                      :.Z V j *.F m V V Z r o o                 ",
"                        ,.F Z V Z p p p @ Z V c                 ",
"                        ,.` ( Z Z p p V o % V c u               ",
"                        =.@ -.-.V l p V r % Z l m               ",
"                        F m K A F Z l p p p V l u               ",
"                          Z < < p K V m p u m l                 ",
"                          ; 9 ; m 9 r 3 Z c l l                 ",
"                          + 7 - 3 r 7 u   m   p                 ",
"                          7 r u 7 ; 9 u o                       ",
"                          2 9 u u u u r -                       ",
"                          ; , u u u u u $                       ",
"                          * * 6 u r 9 r %                       ",
"                          0 ; u 7 0 r < ;                       ",
"                          F ; 3 y T R D &.%.                    ",
"                            W T E U %.%.%.%.]                   ",
"                              ..%.%.%.%.%.$.] h                 ",
"                              L %.%. .] O.} | |                 ",
"                                %.O.O.} %.%.%.] %.              ",
"                                d | $.%.%.] o.%.] O.            ",
"                                  %.%.%.O.%.%.%.%.%.%.          ",
"                                  ]  .O.%.%.%.%.%.%.] ]         ",
"                                    %.O.%.%.O.O.%.%.O.O.g       ",
"                                    %.%.%.%.%.%.%.%.o.%.]       ",
"                                      %.%.%.%.%.%.%.O.%.%.o.    ",
"                                      f I I P P ..P I I I I s   ",
"                                                                "
};
