/* XPM */
static char *_00210ca1b2d4aacec5c283870837bbbUAm78XPsHLEKtBX0[] = {
/* columns rows colors chars-per-pixel */
"32 32 106 2 ",
"   c None",
".  c gray1",
"X  c #0C0C0C",
"o  c gray8",
"O  c #141515",
"+  c gray9",
"@  c #181818",
"#  c gray10",
"$  c #1B1B1B",
"%  c gray11",
"&  c #1D1D1D",
"*  c #1E1E1E",
"=  c gray12",
"-  c gray13",
";  c #222222",
":  c #232323",
">  c #202124",
",  c gray17",
"<  c #2D2D2D",
"1  c gray18",
"2  c gray19",
"3  c #313131",
"4  c #323232",
"5  c gray20",
"6  c #343434",
"7  c #373737",
"8  c gray22",
"9  c #393939",
"0  c gray23",
"q  c #3C3C3C",
"w  c #3E3E3E",
"e  c #3F3F3F",
"r  c #463626",
"t  c #4A3A29",
"y  c #5B452F",
"u  c #5B4531",
"i  c #5D4732",
"p  c #5D4932",
"a  c #5E4A34",
"s  c #604B33",
"d  c gray25",
"f  c #414141",
"g  c gray26",
"h  c #434343",
"j  c gray27",
"k  c #464646",
"l  c gray28",
"z  c #454A4E",
"x  c #484848",
"c  c #494949",
"v  c gray29",
"b  c #4B4B4B",
"n  c gray30",
"m  c #4E4E4E",
"M  c gray31",
"N  c #50504F",
"B  c #505050",
"V  c gray32",
"C  c #535353",
"Z  c gray33",
"A  c #565656",
"S  c #575756",
"D  c gray34",
"F  c #5F5F5F",
"G  c #7A5F43",
"H  c #7D6043",
"J  c #7F6346",
"K  c #7E6347",
"L  c #7F6347",
"P  c #7F6B55",
"I  c #73675B",
"U  c #444A63",
"Y  c #4C5569",
"T  c #5B6264",
"R  c #626262",
"E  c gray40",
"W  c DimGray",
"Q  c #6F6F6F",
"!  c #727272",
"~  c gray45",
"^  c #747474",
"/  c #767575",
"(  c #777777",
")  c gray47",
"_  c gray48",
"`  c #856545",
"'  c #856646",
"]  c #8A6641",
"[  c #8A6642",
"{  c #8A6846",
"}  c #876848",
"|  c #876849",
" . c #896948",
".. c #886949",
"X. c #8A6A49",
"o. c #89694A",
"O. c #896A4B",
"+. c #8A6A4B",
"@. c #8A6B4C",
"#. c #B7AB37",
"$. c #918A48",
"%. c #888888",
"&. c #898989",
"*. c #8D8D8D",
"=. c #929292",
"-. c gray59",
/* pixels */
"                                                                ",
"                                                                ",
"                    ( ~ e                                       ",
"                  q ) ) _ ( Q                                   ",
"                    ( ~ ) ) ( h   v <                           ",
"                    E A Z ~ #.$.D m m m m $ .                   ",
"                        ( N B D l e 2 8 o B B l                 ",
"                          -.B B m e : 8 R 8 m v                 ",
"                          =.*.W v e < R X 8 m l                 ",
"                          h   _ %.m < 6 h v h h                 ",
"                            v &.h : e h e v h h                 ",
"                            h m * : R D B m ~ l                 ",
"                              8 $ * 8 2 : v ( (                 ",
"                              2 2 $ 6 6 : * 8 B                 ",
"                              $ 8 8 * : 8 6                     ",
"                              o 8 8 8 6 8 <                     ",
"                              $ 8 8 8 8 8 2                     ",
"                              * < 2 8 8 2 5                     ",
"                              * * 8 6 2 2 > O                   ",
"                              h $ : z T U I @.a                 ",
"                              l * Y @.@.@.@.@.@.p               ",
"                                  K O.O.@.@.@.| | p             ",
"                                  O.@.O.@.' | [ O.O.            ",
"                                  H O.O.| | @.@.+.O.@.          ",
"                                    H [ @.@.O.` +.O.` `         ",
"                                    r @.@.| O.@.@.@.@.@.t       ",
"                                      @.O.O.@.@.@.@.@.@.` p     ",
"                                      s O.O.@.@.| +.@.@.` @.    ",
"                                        ' O.@.| @.@.@.O.@.@.|   ",
"                                        u @.@.@.@.@.@.@.` @.@.L ",
"                                          H L L L L L L L L L L ",
"                                                                "
};
