/* XPM */
static char *result[] = {
/* columns rows colors chars-per-pixel */
"32 32 4 1 ",
"  c #2F2E2F",
". c #39314B",
"X c #3E2F5A",
"o c #564064",
/* pixels */
"......   ............   ........",
"                                ",
" oooooooooooo   oooooooooooooo  ",
"ooooooXooooooo ooooooXoooXooooo ",
"oXXoXXXXoXXXoo ooXXoXXXoXXXXXXo ",
"XXXXXX.XXXX..o o..XXXXXXXXXX.XX ",
".............. ......XX........ ",
" ............   ..............  ",
"                                ",
"oooo   ooooooooooooooo   ooooooo",
"ooooo ooooooooooXXooooo ooooooXX",
"XoXoo ooXXoXXXoXXXXoXoo ooXoXXXX",
"XXX.o o.XXXX.XXX...XX.o o.XXXX..",
"XX... ...XX...XXXXXX... ...XX..X",
"..... ...........XX.... ........",
"....   ...............   .......",
"                                ",
"ooooooooooo   oooooooooooo   ooo",
"ooooooooXooo ooooooXooooooo oooX",
"XXoXXXoXXXoo ooXXoXXXXoXXoo ooXX",
"XXXXXX.XXXXo oXXXXX.XX.XXXo oXX.",
"XXX..XX.XXX. .XXXX..XXX.XX. .XXX",
"XX..XXX..X.. ..X...XX.XXX.. ..XX",
".....X...... ..........X... ...X",
"...........   ............   ...",
"                                ",
"oooooo   oooooooooooo   oooooooo",
"ooooooo ooooooXoooXooo ooooooooX",
"XXoXXoo ooXXoXXXoXXXoo ooXXoXXXX",
"X.XXX.o o.XXXXXX.XXX.o o.XXXXXX.",
"XXXX... ...X..XXXXX... ...XXXX..",
"..X.... .........X.... ....X...."
};
