/* XPM */
static char *result[] = {
/* columns rows colors chars-per-pixel */
"32 32 11 1 ",
"  c #3C5956",
". c #397B44",
"X c #7A444A",
"o c #A05B53",
"O c #BF7958",
"+ c #71AA34",
"@ c #B6D53C",
"# c #EEA160",
"$ c #CFC6B8",
"% c #DFF6F5",
"& c None",
/* pixels */
"&&&&&&&&&&&&&&&&&&&&&&&&&&&&&&&&",
"&&&&&&&&&&&&&&&&&&&&&&&&&&&&&&&&",
"&&&&&&&&&&&&&&&&&&&&&&&&&&&&&&&&",
"&&&&&&&&&&&&&&&&&&&&&&&&&&&&&&&&",
"&&&&&&&&&&&&&&&&&&&&&&&&&&&&&&&&",
"&&&&&&&&&&&&&&&&&&&&&&&&&&&&&&&&",
"&&&&&&&&&&&&&&&&&&&&&&&&&&&&&&&&",
"&&&&&&&&&&&&&&&&&&&&&&&&&&&&&&&&",
"&&&&&&&&&&&&&&####&&&&&&&&&&&&&&",
"&&&&&&&&&&&&&#####O&&&&&&&&&&&&&",
"&&&&&&&&&&&&&O##OOX&&&&&&&&&&&&&",
"&&&&&&&&&&&&&OOooXX&&&&&&&&&&&&&",
"&&&&&&&&&&&&&oooXXX&&&&&&&&&&&&&",
"&&&&&&&&&&&&%oooXXX%&&&&&&&&&&&&",
"&&&&&&&&&&&%%%ooXX%%%&&&&&&&&&&&",
"&&&&&&&&&%%&%o%%%%X%&%%&&&&&&&&&",
"&&&&&&&&%&&&%&ooXX&%&&&%&&&&&&&&",
"&&&&&&&%&&&&&%@XX+%&&&&&%&&&&&&&",
"&&&&&&%&%&&@@@@@@++++&&%&%&&&&&&",
"&&&&&&%&&@@%%@@@@@+%%++&&%&&&&&&",
"&&&&&&%&%@@@@%%@@%%++++%&%&&&&&&",
"&&&&&&%&%%.@@@@%%++++..%&%&&&&&&",
"&&&&&&%&&%...@@++++... &&%&&&&&&",
"&&&&&&%&%............  %&%&&&&&&",
"&&&&&&%&$% .........  %$&%&&&&&&",
"&&&&&&&%&&   .....    &&%&&&&&&&",
"&&&&&&&&&%%&&&%   &&&%%&&&&&&&&&",
"&&&&&&&&&&&%%&&&&&&%%&&&&&&&&&&&",
"&&&&&&&&&&&&&%%&&%%&&&&&&&&&&&&&",
"&&&&&&&&&&&&&&&%%&&&&&&&&&&&&&&&",
"&&&&&&&&&&&&&&&&&&&&&&&&&&&&&&&&",
"&&&&&&&&&&&&&&&&&&&&&&&&&&&&&&&&"
};
