/* XPM */
static char *result[] = {
/* columns rows colors chars-per-pixel */
"32 32 5 1 ",
"  c #2F2E2F",
". c #3E2F5A",
"X c #564064",
"o c #85578E",
"O c #BE9BB0",
/* pixels */
"oOOOOOOOOOOOOOOo oOOOOOOOOOOOOo ",
"OoooooXoooXooooO OooooooooooooO ",
"ooXXoXXXoXXXXXXo oXXoXXXXoXXXoo ",
"o..XXXXXXXXXX.XX XXXXXX.XXXX..o ",
"......XX........ .............. ",
" ..............   ............  ",
"                                ",
"ooooooo   ooooooooooo   oooooooo",
"oXXooooo ooooooXXooooo ooooooooo",
"XXXXoXoo ooXoXXXXXoXoo ooXXoXXXo",
"X...XX.o o.XXXX..XXX.o o.XXXX.XX",
"XXXXX... ...XX..XXX... ...XX...X",
"..XX.... ............. .........",
".......   ...........   ........",
"                                ",
"ooooooooooo   oooooooooooooo   o",
"ooooXooooooo oooXooooooooXooo oo",
"XXoXXXXoXXoo ooXXXXoXXXoXXXoo oo",
"XXXX.XX.XXXo oXX.XXXXXX.XXXXo oX",
"XXX..XXX.XX. .XXX.XX..XX.XXX. .X",
"X...XX.XXX.. ..XXXX..XXX..X.. ..",
"........X... ...X.....X...... ..",
"...........   ..............   .",
"                                ",
"oooooo   oooooooooooooo   oooooo",
"oooXooo ooooooooXooooooo ooooooX",
"XoXXXoo ooXXoXXXXXXoXXoo ooXXoXX",
"X.XXX.o o.XXXXXX.X.XXX.o o.XXXXX",
"XXXX... ...XXXX..XXXX... ...X..X",
"..X.... ....X......X.... .......",
"......   ..............   ......",
"                                "
};
