/* XPM */
static char *result[] = {
/* columns rows colors chars-per-pixel */
"32 32 5 1 ",
"  c #0E5E20",
". c #32A92A",
"X c #82D34F",
"o c #BDED89",
"O c None",
/* pixels */
"OOOOOOOOOOOOOOOOOOOOOOOOOOOOOOOO",
"OOOOOOOOOOOOOOOOOOOOOOOOOOOOOOOO",
"OOOOOOOOOOOOOOOOOOOOOOOOOOOOOOOO",
"OOOOOOOOOOOOOOOOOOOOOOOOOOOOOOOO",
"OOOOOOOOOOOOOOOOOOOOOOOOOOOOOOOO",
"OOOOOOOOOOOOOOOOOOOOOOOOOOOOOOOO",
"OOOOOOOOOOOOOOOOOOOOOOOOOOOOOOOO",
"OOOOOOOOOOOOOOOOOOOOOOOOOOOOOOOO",
"OOOOOOOOOOOOOOOOOOOOOOOOOOOOOOOO",
"OOOOOOOOOOOOOOOOOOOOOOOOOOOOOOOO",
"OOOOOOOOOOOOOOOOOOOOOOOOOOOOOOOO",
"OOOOOOOOOOOOOOOOOOOOOOOOOOOOOOOO",
"OOOOOOOOOOOO        OOOOOOOOOOOO",
"OOOOOOOOOOOO        OOOOOOOOOOOO",
"OOOOOOOO  ..XXXXXXXX..  OOOOOOOO",
"OOOOOOOO  ..XXXXXXXX..  OOOOOOOO",
"OOOOOO  XXooooooooooooXX  OOOOOO",
"OOOOOO  XXooooooooooooXX  OOOOOO",
"OOOO  XX  oo  ooooooooooXX  OOOO",
"OOOO  XX  oo  ooooooooooXX  OOOO",
"OOOO..XX..oo..ooooooXXXXXX..OOOO",
"OOOO..XX..oo..ooooooXXXXXX..OOOO",
"OO  XXXX..XX..XXXXXXXXXXXXXX  OO",
"OO  XXXX..XX..XXXXXXXXXXXXXX  OO",
"OO  XXXXXXXXXXXXXXXXXXXXXXXX  OO",
"OO  XXXXXXXXXXXXXXXXXXXXXXXX  OO",
"OO  ..XXXXXXXXXXXXXXXXXXXX..  OO",
"OO  ..XXXXXXXXXXXXXXXXXXXX..  OO",
"OO    ..XXXXXXXXXXXXXX....    OO",
"OO    ..XXXXXXXXXXXXXX....    OO",
"OOOO                        OOOO",
"OOOO                        OOOO"
};
