/* XPM */
static char *result[] = {
/* columns rows colors chars-per-pixel */
"32 32 5 1 ",
"  c #0E5E20",
". c #32A92A",
"X c #82D34F",
"o c #BDED89",
"O c None",
/* pixels */
"OOOOOOOOOOOOOOOOOOOOOOOOOOOOOOOO",
"OOOOOOOOOOOOOOOOOOOOOOOOOOOOOOOO",
"OOOOOOOOOOOOOOOOOOOOOOOOOOOOOOOO",
"OOOOOOOOOOOOOOOOOOOOOOOOOOOOOOOO",
"OOOOOOOOOOOOOOOOOOOOOOOOOOOOOOOO",
"OOOOOOOOOOOOOOOOOOOOOOOOOOOOOOOO",
"OOOOOOOOOOOOOOOOOOOOOOOOOOOOOOOO",
"OOOOOOOOOOOOOOOOOOOOOOOOOOOOOOOO",
"OOOOOOOOOOOOOOOOOOOOOOOOOOOOOOOO",
"OOOOOOOOOOOOOOOOOOOOOOOOOOOOOOOO",
"OOOOOOOOOOOOOO    OOOOOOOOOOOOOO",
"OOOOOOOOOOOOOO    OOOOOOOOOOOOOO",
"OOOOOOOOOO  ..XXXX..  OOOOOOOOOO",
"OOOOOOOOOO  ..XXXX..  OOOOOOOOOO",
"OOOOOOOO  XXXXooooXXXX  OOOOOOOO",
"OOOOOOOO  XXXXooooXXXX  OOOOOOOO",
"OOOOOO  XXoooooooo  oo    OOOOOO",
"OOOOOO  XXoooooooo  oo    OOOOOO",
"OOOO  ..XXoooooooo  oo  XX  OOOO",
"OOOO  ..XXoooooooo  oo  XX  OOOO",
"OOOO  XXXXXXoooooo..oo..XX  OOOO",
"OOOO  XXXXXXoooooo..oo..XX  OOOO",
"OOOO..XXXXXXXXXXXXXXXXXXXX..OOOO",
"OOOO..XXXXXXXXXXXXXXXXXXXX..OOOO",
"OO  ..XXXXXXXXXXXXXXXXXXXX..  OO",
"OO  ..XXXXXXXXXXXXXXXXXXXX..  OO",
"OO  ..XXXXXXXXXXXXXXXXXXXX..  OO",
"OO  ..XXXXXXXXXXXXXXXXXXXX..  OO",
"OO    ..XXXXXXXXXXXXXXXX..    OO",
"OO    ..XXXXXXXXXXXXXXXX..    OO",
"OOOO                        OOOO",
"OOOO                        OOOO"
};
