/* XPM */
static char *result[] = {
/* columns rows colors chars-per-pixel */
"32 32 5 1 ",
"  c #0E5E20",
". c #32A92A",
"X c #82D34F",
"o c #BDED89",
"O c None",
/* pixels */
"OOOOOOOOOOOOOOOOOOOOOOOOOOOOOOOO",
"OOOOOOOOOOOOOOOOOOOOOOOOOOOOOOOO",
"OOOOOOOOOOOOOOOOOOOOOOOOOOOOOOOO",
"OOOOOOOOOOOOOOOOOOOOOOOOOOOOOOOO",
"OOOOOOOOOOOOOOOOOOOOOOOOOOOOOOOO",
"OOOOOOOOOOOOOOOOOOOOOOOOOOOOOOOO",
"OOOOOOOOOOOOOOOOOOOOOOOOOOOOOOOO",
"OOOOOOOOOOOOOOOOOOOOOOOOOOOOOOOO",
"OOOOOOOOOOOOOOOOOOOOOOOOOOOOOOOO",
"OOOOOOOOOOOOOOOOOOOOOOOOOOOOOOOO",
"OOOOOOOOOOOO        OOOOOOOOOOOO",
"OOOOOOOOOOOO        OOOOOOOOOOOO",
"OOOOOOOO  ..XXXXXXXX..  OOOOOOOO",
"OOOOOOOO  ..XXXXXXXX..  OOOOOOOO",
"OOOOOO  ..XXXXooooXXXX..  OOOOOO",
"OOOOOO  ..XXXXooooXXXX..  OOOOOO",
"OOOOOO..  oo  ooooooooXX..OOOOOO",
"OOOOOO..  oo  ooooooooXX..OOOOOO",
"OOOO  XX  oo  ooooooooXX..  OOOO",
"OOOO  XX  oo  ooooooooXX..  OOOO",
"OOOO  XX..XX..ooooXXXXXXXX  OOOO",
"OOOO  XX..XX..ooooXXXXXXXX  OOOO",
"OOOO  XXXXXXXXXXXXXXXXXXXX  OOOO",
"OOOO  XXXXXXXXXXXXXXXXXXXX  OOOO",
"OOOO  XXXXXXXXXXXXXXXXXXXX  OOOO",
"OOOO  XXXXXXXXXXXXXXXXXXXX  OOOO",
"OOOO  XXXXXXXXXXXXXXXXXX..  OOOO",
"OOOO  XXXXXXXXXXXXXXXXXX..  OOOO",
"OOOO  ..XXXXXXXXXXXXXX....  OOOO",
"OOOO  ..XXXXXXXXXXXXXX....  OOOO",
"OOOOOO                    OOOOOO",
"OOOOOO                    OOOOOO"
};
