/* XPM */
static char *result[] = {
/* columns rows colors chars-per-pixel */
"32 32 5 1 ",
"  c #0E5E20",
". c #32A92A",
"X c #82D34F",
"o c #BDED89",
"O c None",
/* pixels */
"OOOOOOOOOOOOOOOOOOOOOOOOOOOOOOOO",
"OOOOOOOOOOOOOOOOOOOOOOOOOOOOOOOO",
"OOOOOOOOOOOOOOOOOOOOOOOOOOOOOOOO",
"OOOOOOOOOOOOOOOOOOOOOOOOOOOOOOOO",
"OOOOOOOOOOOOOOOOOOOOOOOOOOOOOOOO",
"OOOOOOOOOOOOOOOOOOOOOOOOOOOOOOOO",
"OOOOOOOOOOOOOOOOOOOOOOOOOOOOOOOO",
"OOOOOOOOOOOOOOOOOOOOOOOOOOOOOOOO",
"OOOOOOOOOOOOOOOOOOOOOOOOOOOOOOOO",
"OOOOOOOOOOOOOOOOOOOOOOOOOOOOOOOO",
"OOOOOOOOOOOOOOOOOOOOOOOOOOOOOOOO",
"OOOOOOOOOOOOOOOOOOOOOOOOOOOOOOOO",
"OOOOOOOOOO            OOOOOOOOOO",
"OOOOOOOOOO            OOOOOOOOOO",
"OOOOOO  ....XXXXXXXX....  OOOOOO",
"OOOOOO  ....XXXXXXXX....  OOOOOO",
"OOOO  ..XXooooooooooooXX..  OOOO",
"OOOO  ..XXooooooooooooXX..  OOOO",
"OOOO  XXoooooooooo  oo  XX  OOOO",
"OOOO  XXoooooooooo  oo  XX  OOOO",
"OOOO..XXXXXXXXoooo..XX..XX..OOOO",
"OOOO..XXXXXXXXoooo..XX..XX..OOOO",
"OOOOXXXXXXXXXXXXXX..XX..XXXXOOOO",
"OOOOXXXXXXXXXXXXXX..XX..XXXXOOOO",
"OO  XXXXXXXXXXXXXXXXXXXXXXXX  OO",
"OO  XXXXXXXXXXXXXXXXXXXXXXXX  OO",
"OO  ..XXXXXXXXXXXXXXXXXXXX..  OO",
"OO  ..XXXXXXXXXXXXXXXXXXXX..  OO",
"OOOO  ....XXXXXXXXXXXXXX..  OOOO",
"OOOO  ....XXXXXXXXXXXXXX..  OOOO",
"OOOOOO                    OOOOOO",
"OOOOOO                    OOOOOO"
};
